:SAMPLES-PER-SECOND 30
:FULLY-SPECIFIED
:DEGREES
815
root  -76.7353 40.8314 2.24375 -135.202 -88.2269 129.907
RightUpLeg  2.50299 -8.22761 -4.25894
RightLeg  10.923 5.28218 0.243861
RightFoot  -6.45035 -0.0328379 -0.255374
RightToes  -4.65661e-009 0 -3.6325e-017
Spine  1.38797 0.955128 3.92425
Spine1  6.92952 1.34775 -0.431401
HEad  -18.0475 -4.48171 -4.75998
LeftShoulder1  -0.360098 4.42599 -32.903
LeftArm  -1.21609 17.7453 -37.1515
LeftForeArm  30.4121 -15.5433 -5.83636
LeftHand  -0.0830446 7.15569 -2.67586
RightShoulder  -0.911227 -6.04917 29.2248
RightArm  8.28146 -14.1331 40.5719
RightForeArm  14.1252 13.4716 4.00765
RightHand  0.0256687 4.38378 0.0458458
LeftUpLeg  -0.406416 4.52704 4.173
LeftLeg  8.68626 -4.4082 0.433685
LeftFoot  -2.19372 0.0488434 -0.445315
LeftToes  9.86798e-010 -1.28139e-010 1.4132e-011
816
root  -76.9808 40.9446 2.38849 -140.351 -87.4072 135.665
RightUpLeg  2.67225 -8.18846 -4.91555
RightLeg  9.74028 5.9815 0.131954
RightFoot  -5.96501 -0.0452286 0.0973906
RightToes  -4.65661e-009 0 -3.6325e-017
Spine  0.345564 1.18149 3.45063
Spine1  7.23574 1.66855 -1.30429
HEad  -18.017 -4.31056 -4.99299
LeftShoulder1  -0.347607 4.39739 -32.7678
LeftArm  1.06838 15.627 -36.2027
LeftForeArm  25.6613 -19.0606 -4.63414
LeftHand  -0.0931512 7.65253 -2.31855
RightShoulder  -0.839802 -5.88388 28.6793
RightArm  6.18581 -13.4121 41.1258
RightForeArm  9.84102 14.5192 3.61783
RightHand  -0.0656675 5.36821 -1.03599
LeftUpLeg  0.831937 6.32048 3.82128
LeftLeg  5.96684 -5.32945 0.141617
LeftFoot  -1.32044 0.0228531 -0.172018
LeftToes  9.86798e-010 -1.28139e-010 1.4132e-011
817
root  -77.2272 41.0319 2.56691 -141.909 -86.8058 137.684
RightUpLeg  3.083 -8.09982 -5.48201
RightLeg  8.43858 6.48194 -0.106526
RightFoot  -5.57349 -0.0671995 0.58472
RightToes  -4.65661e-009 0 -3.6325e-017
Spine  -0.0899017 1.1771 3.09537
Spine1  6.80725 1.77925 -2.23122
HEad  -17.6833 -3.9961 -5.09696
LeftShoulder1  -0.357792 4.42781 -32.5842
LeftArm  0.721591 14.1707 -34.8737
LeftForeArm  23.2739 -22.6093 -3.82866
LeftHand  -0.0425102 6.87836 -0.479144
RightShoulder  -0.756008 -5.68141 28.0792
RightArm  6.90888 -12.3176 41.0955
RightForeArm  9.17703 16.4842 3.73649
RightHand  -0.0877218 5.18843 -1.26455
LeftUpLeg  2.0463 6.89801 3.43137
LeftLeg  3.51984 -5.26086 -0.0710967
LeftFoot  -0.521481 -0.00879255 0.128057
LeftToes  9.86798e-010 -1.28139e-010 1.4132e-011
818
root  -77.4305 41.0603 2.74067 -141.95 -86.1768 138.737
RightUpLeg  2.21656 -7.93274 -5.99637
RightLeg  8.34202 6.9217 -0.201488
RightFoot  -5.63624 -0.0843151 0.927114
RightToes  -4.65661e-009 0 -3.6325e-017
Spine  -1.67891 1.2219 2.8964
Spine1  7.40151 1.93763 -2.98447
HEad  -17.8101 -3.64873 -5.53052
LeftShoulder1  -0.310592 4.30773 -32.5028
LeftArm  -2.38634 12.0603 -33.5471
LeftForeArm  24.3785 -25.2957 -4.09548
LeftHand  -0.0352077 6.30858 0.184887
RightShoulder  -0.69075 -5.53096 27.4022
RightArm  8.47372 -10.197 41.126
RightForeArm  10.5136 18.1484 3.88566
RightHand  -0.107971 6.15713 -1.39734
LeftUpLeg  1.92069 6.49652 2.58488
LeftLeg  2.3103 -4.241 0.125667
LeftFoot  -0.263705 -0.0176151 0.197857
LeftToes  9.86798e-010 -1.28139e-010 1.4132e-011
819
root  -77.6069 41.0606 2.91773 -144.61 -85.315 141.644
RightUpLeg  1.85007 -7.5559 -6.51752
RightLeg  8.73488 7.36086 -0.411751
RightFoot  -5.92921 -0.106061 1.39006
RightToes  -4.65661e-009 0 -3.6325e-017
Spine  -2.16294 1.35993 2.15432
Spine1  7.70402 2.05011 -2.85055
HEad  -17.3408 -3.34438 -6.09437
LeftShoulder1  -0.298938 4.2817 -32.2973
LeftArm  -4.46694 9.72653 -32.5522
LeftForeArm  24.1953 -26.8162 -4.46647
LeftHand  -0.0267775 5.34556 1.51274
RightShoulder  -0.600382 -5.29672 26.7401
RightArm  10.0809 -7.73352 40.9524
RightForeArm  12.9525 19.4676 3.91935
RightHand  -0.00129963 4.89007 -0.327171
LeftUpLeg  2.26127 5.92529 1.6589
LeftLeg  1.79067 -2.78231 0.523277
LeftFoot  -0.275066 -0.0346666 0.378818
LeftToes  9.86798e-010 -1.28139e-010 1.4132e-011
820
root  -77.7304 41.0516 3.12192 -148.746 -85.2801 145.687
RightUpLeg  2.05638 -7.45106 -6.71287
RightLeg  8.82784 7.51314 -0.216439
RightFoot  -5.91733 -0.121639 1.71814
RightToes  -4.65661e-009 0 -3.6325e-017
Spine  -1.81827 1.19302 2.51762
Spine1  7.75192 1.93153 -3.31014
HEad  -17.2625 -4.01265 -6.37465
LeftShoulder1  -0.276347 4.22916 -31.9669
LeftArm  -6.37647 7.46745 -31.8891
LeftForeArm  24.6316 -28.0007 -4.70633
LeftHand  -0.0279327 5.32389 1.40582
RightShoulder  -0.523614 -5.09415 26.1421
RightArm  10.468 -5.30754 41.0304
RightForeArm  13.0562 20.1857 3.96115
RightHand  -0.0402905 4.85369 -0.754177
LeftUpLeg  2.20865 5.98406 1.57562
LeftLeg  2.5477 -2.49541 0.545272
LeftFoot  -0.61275 -0.0899345 0.99536
LeftToes  9.86798e-010 -1.28139e-010 1.4132e-011
821
root  -77.7831 41.0646 3.27436 -149.627 -85.3073 146.682
RightUpLeg  1.52875 -6.86867 -6.71949
RightLeg  9.6689 6.83512 -0.286322
RightFoot  -5.68276 -0.140021 2.04909
RightToes  -4.65661e-009 0 -3.6325e-017
Spine  -1.01581 1.15139 1.83864
Spine1  7.0897 1.72131 -2.57111
HEad  -17.6249 -4.02209 -7.03706
LeftShoulder1  -0.250098 4.16644 -31.621
LeftArm  -6.74679 5.24562 -31.3011
LeftForeArm  24.2647 -28.7946 -4.90622
LeftHand  -0.0399571 4.73171 2.40614
RightShoulder  -0.530674 -5.12788 25.8314
RightArm  10.0231 -3.10843 40.8458
RightForeArm  12.0943 20.4915 4.00517
RightHand  -0.0576431 5.22153 -0.944801
LeftUpLeg  2.11426 5.92521 1.42149
LeftLeg  2.62747 -2.41989 0.505408
LeftFoot  -0.629534 -0.106202 1.17348
LeftToes  9.86798e-010 -1.28139e-010 1.4132e-011
822
root  -77.8468 41.0633 3.42488 -155.604 -85.0096 152.716
RightUpLeg  1.03735 -6.16613 -6.62219
RightLeg  10.4414 6.68441 -0.132287
RightFoot  -5.47827 -0.178133 2.74945
RightToes  -4.65661e-009 0 -3.6325e-017
Spine  -1.53765 1.28203 1.9672
Spine1  8.29656 1.81352 -2.47033
HEad  -18.0653 -4.58092 -7.32041
LeftShoulder1  -0.215648 4.07847 -31.3806
LeftArm  -7.07478 3.12416 -31.063
LeftForeArm  23.858 -29.2095 -5.02379
LeftHand  -0.0668629 3.69191 3.46308
RightShoulder  -0.389042 -4.73714 24.6092
RightArm  8.55571 -1.24144 41.9878
RightForeArm  10.9357 20.2888 4.00308
RightHand  -0.108926 5.64769 -1.44366
LeftUpLeg  2.02688 6.22208 1.61781
LeftLeg  3.05841 -2.11905 0.318511
LeftFoot  -0.893876 -0.128641 1.46835
LeftToes  9.86798e-010 -1.28139e-010 1.4132e-011
823
root  -77.9139 41.0524 3.57116 -160.417 -84.4674 157.485
RightUpLeg  0.645676 -5.46131 -6.71285
RightLeg  11.2199 6.81692 0.111504
RightFoot  -5.37906 -0.203654 3.20879
RightToes  -4.65661e-009 0 -3.6325e-017
Spine  -1.64927 1.45586 2.60253
Spine1  8.8931 2.1472 -3.24816
HEad  -18.385 -4.65072 -7.46202
LeftShoulder1  -0.149642 3.90831 -30.8812
LeftArm  -6.14565 1.20404 -30.7003
LeftForeArm  24.588 -29.569 -5.06708
LeftHand  -0.0216255 5.70272 2.65125
RightShoulder  -0.385747 -4.72954 24.4895
RightArm  8.67127 0.713631 42.3498
RightForeArm  8.59418 20.0732 4.11435
RightHand  -0.239822 6.89954 -2.62849
LeftUpLeg  1.98902 6.43998 1.67176
LeftLeg  3.65328 -1.63895 0.180034
LeftFoot  -1.31203 -0.157866 1.88898
LeftToes  9.86798e-010 -1.28139e-010 1.4132e-011
824
root  -77.9931 41.0308 3.69338 -161.09 -84.1952 157.989
RightUpLeg  0.725225 -5.11203 -7.03281
RightLeg  11.5631 6.83304 0.214964
RightFoot  -5.53312 -0.216045 3.51381
RightToes  -4.65661e-009 0 -3.6325e-017
Spine  -1.36847 1.48906 2.22127
Spine1  8.77657 2.12985 -3.10766
HEad  -17.9037 -5.13765 -7.3858
LeftShoulder1  -0.138579 3.88031 -30.6797
LeftArm  -5.87249 0.608514 -30.5499
LeftForeArm  25.6746 -30.5323 -5.23231
LeftHand  -0.0191083 6.17013 1.76454
RightShoulder  -0.425234 -4.84464 24.8003
RightArm  9.31363 2.32597 42.0869
RightForeArm  9.59839 20.509 4.12281
RightHand  -0.201463 6.61428 -2.25765
LeftUpLeg  2.12635 6.42257 1.43916
LeftLeg  4.07116 -1.33712 0.194722
LeftFoot  -1.66379 -0.149683 1.88402
LeftToes  9.86798e-010 -1.28139e-010 1.4132e-011
825
root  -78.0658 41.0184 3.82604 -161.957 -84.1977 158.999
RightUpLeg  0.690406 -4.97271 -7.13335
RightLeg  11.5063 6.75407 0.194901
RightFoot  -5.56526 -0.225556 3.71911
RightToes  -4.65661e-009 0 -3.6325e-017
Spine  -1.08138 1.39904 1.33549
Spine1  8.01429 1.72624 -1.95004
HEad  -16.9798 -4.97887 -7.7597
LeftShoulder1  -0.165063 3.95066 -30.8159
LeftArm  -5.08233 0.837548 -30.631
LeftForeArm  25.5067 -31.0485 -5.36437
LeftHand  -0.0239323 5.67276 1.87568
RightShoulder  -0.37383 -4.69978 24.2675
RightArm  10.2193 2.91735 42.2557
RightForeArm  10.7202 21.1621 4.14269
RightHand  -0.0589072 5.55282 -0.953731
LeftUpLeg  1.97398 6.32303 1.26857
LeftLeg  4.30645 -1.14219 0.289557
LeftFoot  -2.02873 -0.119061 1.61356
LeftToes  9.86798e-010 -1.28139e-010 1.4132e-011
826
root  -78.1271 41.0206 3.9177 -160.44 -84.0626 157.783
RightUpLeg  0.503883 -4.89155 -7.35076
RightLeg  11.3095 6.79168 0.0271664
RightFoot  -5.70891 -0.234031 3.96458
RightToes  -4.65661e-009 0 -3.6325e-017
Spine  -1.72303 1.37313 1.16319
Spine1  8.53422 1.77733 -2.16704
HEad  -16.7104 -5.21681 -7.49657
LeftShoulder1  -0.167064 3.95682 -30.7538
LeftArm  -3.6364 0.226206 -30.7858
LeftForeArm  24.5481 -30.2373 -5.22489
LeftHand  -0.0339471 5.26761 1.6072
RightShoulder  -0.340479 -4.58746 24.3427
RightArm  10.0823 3.20015 42.8006
RightForeArm  11.0907 21.5457 4.15847
RightHand  -0.110663 5.76313 -1.4692
LeftUpLeg  1.82943 6.17202 0.907989
LeftLeg  4.10551 -0.858372 0.240351
LeftFoot  -1.97403 -0.14343 1.89612
LeftToes  9.86798e-010 -1.28139e-010 1.4132e-011
827
root  -78.1948 41.0397 4.04043 -160.629 -84.0232 157.843
RightUpLeg  1.08149 -5.43643 -7.54491
RightLeg  10.5739 7.30018 -0.200162
RightFoot  -5.59999 -0.24763 4.1779
RightToes  -4.65661e-009 0 -3.6325e-017
Spine  -1.69074 1.3663 1.39356
Spine1  8.62974 1.84109 -2.39261
HEad  -16.3366 -5.60993 -7.24321
LeftShoulder1  -0.154023 3.91882 -30.9889
LeftArm  -3.12933 0.526872 -31.2314
LeftForeArm  26.1582 -30.2693 -5.14352
LeftHand  -0.0380191 6.84988 -0.226662
RightShoulder  -0.426196 -4.83202 25.1735
RightArm  10.7914 3.5587 42.3887
RightForeArm  12.44 22.0375 4.15235
RightHand  -0.0334713 5.49673 -0.676352
LeftUpLeg  2.22151 6.07875 0.689531
LeftLeg  3.79317 -0.692452 0.261569
LeftFoot  -1.90928 -0.172852 2.23514
LeftToes  9.86798e-010 -1.28139e-010 1.4132e-011
